<svg width="410" height="501" viewBox="0 0 410 501" fill="none" xmlns="http://www.w3.org/2000/svg">
<path d="M210 116V92.5L78 171L85 194L210 116Z" fill="#1E9DD8"/>
<path d="M100.5 234.5L92 214L210 141V166L100.5 234.5Z" fill="#1E9DD8"/>
<path d="M210 217V190L108.5 253.5L118 273L210 217Z" fill="#1E9DD8"/>
<path d="M210 317.5V240.5L126 293.5L131.5 298.5C156.3 298.1 194.167 311 210 317.5Z" fill="#1E9DD8"/>
<path d="M228.5 330C255 330.524 278.667 315.5 285.5 307.5C281 324 255.5 348.385 238.5 351C225.5 353 192 354.5 154.5 335C124.5 319.4 80 322.167 61.5 325.5C90.5 302 137.014 296.618 168 314C188.5 325.5 219 329.812 228.5 330Z" fill="#1E9DD8"/>
<path d="M233 362C282 343 320.5 357.5 334 367C321.667 363.667 297 361 275 370C253 379 228 384 215.5 384.5C170.3 380.9 145.667 355.333 139 343C174.2 370.51 216.333 367.129 233 362Z" fill="#1E9DD8"/>
<path d="M210 118V89.5L342.5 171L336 192L210 118Z" fill="#222055"/>
<path d="M210 167.5V140.5L330 212.5L319.5 233.5L210 167.5Z" fill="#222055"/>
<path d="M210 217.5V192L313 252L303.5 274L210 217.5Z" fill="#222055"/>
<path d="M210 65.5V0L361 92.5L347.5 150.5L210 65.5Z" fill="#222055"/>
<path d="M66.0523 490.28C64.1057 490.28 62.3457 489.947 60.7723 489.28C59.2257 488.613 57.999 487.653 57.0923 486.4C56.1857 485.147 55.719 483.667 55.6923 481.96H61.6923C61.7723 483.107 62.1723 484.013 62.8923 484.68C63.639 485.347 64.6523 485.68 65.9323 485.68C67.239 485.68 68.2657 485.373 69.0123 484.76C69.759 484.12 70.1323 483.293 70.1323 482.28C70.1323 481.453 69.879 480.773 69.3723 480.24C68.8657 479.707 68.2257 479.293 67.4523 479C66.7057 478.68 65.6657 478.333 64.3323 477.96C62.519 477.427 61.039 476.907 59.8923 476.4C58.7723 475.867 57.799 475.08 56.9723 474.04C56.1723 472.973 55.7723 471.56 55.7723 469.8C55.7723 468.147 56.1857 466.707 57.0123 465.48C57.839 464.253 58.999 463.32 60.4923 462.68C61.9857 462.013 63.6923 461.68 65.6123 461.68C68.4923 461.68 70.8257 462.387 72.6123 463.8C74.4257 465.187 75.4257 467.133 75.6123 469.64H69.4523C69.399 468.68 68.9857 467.893 68.2123 467.28C67.4657 466.64 66.4657 466.32 65.2123 466.32C64.119 466.32 63.239 466.6 62.5723 467.16C61.9323 467.72 61.6123 468.533 61.6123 469.6C61.6123 470.347 61.8523 470.973 62.3323 471.48C62.839 471.96 63.4523 472.36 64.1723 472.68C64.919 472.973 65.959 473.32 67.2923 473.72C69.1057 474.253 70.5857 474.787 71.7323 475.32C72.879 475.853 73.8657 476.653 74.6923 477.72C75.519 478.787 75.9323 480.187 75.9323 481.92C75.9323 483.413 75.5457 484.8 74.7723 486.08C73.999 487.36 72.8657 488.387 71.3723 489.16C69.879 489.907 68.1057 490.28 66.0523 490.28ZM101.987 467.84L88.2673 500.48H82.3073L87.1073 489.44L78.2273 467.84H84.5073L90.2273 483.32L96.0273 467.84H101.987ZM117.286 467.52C119.926 467.52 122.059 468.36 123.686 470.04C125.313 471.693 126.126 474.013 126.126 477V490H120.526V477.76C120.526 476 120.086 474.653 119.206 473.72C118.326 472.76 117.126 472.28 115.606 472.28C114.059 472.28 112.833 472.76 111.926 473.72C111.046 474.653 110.606 476 110.606 477.76V490H105.006V467.84H110.606V470.6C111.353 469.64 112.299 468.893 113.446 468.36C114.619 467.8 115.899 467.52 117.286 467.52ZM152.051 478.44C152.051 479.24 151.998 479.96 151.891 480.6H135.691C135.825 482.2 136.385 483.453 137.371 484.36C138.358 485.267 139.571 485.72 141.011 485.72C143.091 485.72 144.571 484.827 145.451 483.04H151.491C150.851 485.173 149.625 486.933 147.811 488.32C145.998 489.68 143.771 490.36 141.131 490.36C138.998 490.36 137.078 489.893 135.371 488.96C133.691 488 132.371 486.653 131.411 484.92C130.478 483.187 130.011 481.187 130.011 478.92C130.011 476.627 130.478 474.613 131.411 472.88C132.345 471.147 133.651 469.813 135.331 468.88C137.011 467.947 138.945 467.48 141.131 467.48C143.238 467.48 145.118 467.933 146.771 468.84C148.451 469.747 149.745 471.04 150.651 472.72C151.585 474.373 152.051 476.28 152.051 478.44ZM146.251 476.84C146.225 475.4 145.705 474.253 144.691 473.4C143.678 472.52 142.438 472.08 140.971 472.08C139.585 472.08 138.411 472.507 137.451 473.36C136.518 474.187 135.945 475.347 135.731 476.84H146.251ZM161.739 471.28C162.459 470.107 163.392 469.187 164.539 468.52C165.712 467.853 167.046 467.52 168.539 467.52V473.4H167.059C165.299 473.4 163.966 473.813 163.059 474.64C162.179 475.467 161.739 476.907 161.739 478.96V490H156.139V467.84H161.739V471.28ZM180.991 467.48C182.644 467.48 184.097 467.813 185.351 468.48C186.604 469.12 187.591 469.96 188.311 471V467.84H193.951V490.16C193.951 492.213 193.537 494.04 192.711 495.64C191.884 497.267 190.644 498.547 188.991 499.48C187.337 500.44 185.337 500.92 182.991 500.92C179.844 500.92 177.257 500.187 175.231 498.72C173.231 497.253 172.097 495.253 171.831 492.72H177.391C177.684 493.733 178.311 494.533 179.271 495.12C180.257 495.733 181.444 496.04 182.831 496.04C184.457 496.04 185.777 495.547 186.791 494.56C187.804 493.6 188.311 492.133 188.311 490.16V486.72C187.591 487.76 186.591 488.627 185.311 489.32C184.057 490.013 182.617 490.36 180.991 490.36C179.124 490.36 177.417 489.88 175.871 488.92C174.324 487.96 173.097 486.613 172.191 484.88C171.311 483.12 170.871 481.107 170.871 478.84C170.871 476.6 171.311 474.613 172.191 472.88C173.097 471.147 174.311 469.813 175.831 468.88C177.377 467.947 179.097 467.48 180.991 467.48ZM188.311 478.92C188.311 477.56 188.044 476.4 187.511 475.44C186.977 474.453 186.257 473.707 185.351 473.2C184.444 472.667 183.471 472.4 182.431 472.4C181.391 472.4 180.431 472.653 179.551 473.16C178.671 473.667 177.951 474.413 177.391 475.4C176.857 476.36 176.591 477.507 176.591 478.84C176.591 480.173 176.857 481.347 177.391 482.36C177.951 483.347 178.671 484.107 179.551 484.64C180.457 485.173 181.417 485.44 182.431 485.44C183.471 485.44 184.444 485.187 185.351 484.68C186.257 484.147 186.977 483.4 187.511 482.44C188.044 481.453 188.311 480.28 188.311 478.92ZM220.62 467.84L206.9 500.48H200.94L205.74 489.44L196.86 467.84H203.14L208.86 483.32L214.66 467.84H220.62Z" fill="#229CD8"/>
<path d="M252.61 470.48C251.97 469.307 251.09 468.413 249.97 467.8C248.85 467.187 247.543 466.88 246.05 466.88C244.397 466.88 242.93 467.253 241.65 468C240.37 468.747 239.37 469.813 238.65 471.2C237.93 472.587 237.57 474.187 237.57 476C237.57 477.867 237.93 479.493 238.65 480.88C239.397 482.267 240.423 483.333 241.73 484.08C243.037 484.827 244.557 485.2 246.29 485.2C248.423 485.2 250.17 484.64 251.53 483.52C252.89 482.373 253.783 480.787 254.21 478.76H244.61V474.48H259.73V479.36C259.357 481.307 258.557 483.107 257.33 484.76C256.103 486.413 254.517 487.747 252.57 488.76C250.65 489.747 248.49 490.24 246.09 490.24C243.397 490.24 240.957 489.64 238.77 488.44C236.61 487.213 234.903 485.52 233.65 483.36C232.423 481.2 231.81 478.747 231.81 476C231.81 473.253 232.423 470.8 233.65 468.64C234.903 466.453 236.61 464.76 238.77 463.56C240.957 462.333 243.383 461.72 246.05 461.72C249.197 461.72 251.93 462.493 254.25 464.04C256.57 465.56 258.17 467.707 259.05 470.48H252.61ZM269.473 471.28C270.193 470.107 271.127 469.187 272.273 468.52C273.447 467.853 274.78 467.52 276.273 467.52V473.4H274.793C273.033 473.4 271.7 473.813 270.793 474.64C269.913 475.467 269.473 476.907 269.473 478.96V490H263.873V467.84H269.473V471.28ZM289.885 490.36C287.752 490.36 285.832 489.893 284.125 488.96C282.418 488 281.072 486.653 280.085 484.92C279.125 483.187 278.645 481.187 278.645 478.92C278.645 476.653 279.138 474.653 280.125 472.92C281.138 471.187 282.512 469.853 284.245 468.92C285.978 467.96 287.912 467.48 290.045 467.48C292.178 467.48 294.112 467.96 295.845 468.92C297.578 469.853 298.938 471.187 299.925 472.92C300.938 474.653 301.445 476.653 301.445 478.92C301.445 481.187 300.925 483.187 299.885 484.92C298.872 486.653 297.485 488 295.725 488.96C293.992 489.893 292.045 490.36 289.885 490.36ZM289.885 485.48C290.898 485.48 291.845 485.24 292.725 484.76C293.632 484.253 294.352 483.507 294.885 482.52C295.418 481.533 295.685 480.333 295.685 478.92C295.685 476.813 295.125 475.2 294.005 474.08C292.912 472.933 291.565 472.36 289.965 472.36C288.365 472.36 287.018 472.933 285.925 474.08C284.858 475.2 284.325 476.813 284.325 478.92C284.325 481.027 284.845 482.653 285.885 483.8C286.952 484.92 288.285 485.48 289.885 485.48ZM326.473 467.84V490H320.833V487.2C320.113 488.16 319.166 488.92 317.993 489.48C316.846 490.013 315.593 490.28 314.233 490.28C312.5 490.28 310.966 489.92 309.633 489.2C308.3 488.453 307.246 487.373 306.473 485.96C305.726 484.52 305.353 482.813 305.353 480.84V467.84H310.953V480.04C310.953 481.8 311.393 483.16 312.273 484.12C313.153 485.053 314.353 485.52 315.873 485.52C317.42 485.52 318.633 485.053 319.513 484.12C320.393 483.16 320.833 481.8 320.833 480.04V467.84H326.473ZM337.598 471.04C338.318 470.027 339.305 469.187 340.558 468.52C341.838 467.827 343.292 467.48 344.918 467.48C346.812 467.48 348.518 467.947 350.038 468.88C351.585 469.813 352.798 471.147 353.678 472.88C354.585 474.587 355.038 476.573 355.038 478.84C355.038 481.107 354.585 483.12 353.678 484.88C352.798 486.613 351.585 487.96 350.038 488.92C348.518 489.88 346.812 490.36 344.918 490.36C343.292 490.36 341.852 490.027 340.598 489.36C339.372 488.693 338.372 487.853 337.598 486.84V500.56H331.998V467.84H337.598V471.04ZM349.318 478.84C349.318 477.507 349.038 476.36 348.478 475.4C347.945 474.413 347.225 473.667 346.318 473.16C345.438 472.653 344.478 472.4 343.438 472.4C342.425 472.4 341.465 472.667 340.558 473.2C339.678 473.707 338.958 474.453 338.398 475.44C337.865 476.427 337.598 477.587 337.598 478.92C337.598 480.253 337.865 481.413 338.398 482.4C338.958 483.387 339.678 484.147 340.558 484.68C341.465 485.187 342.425 485.44 343.438 485.44C344.478 485.44 345.438 485.173 346.318 484.64C347.225 484.107 347.945 483.347 348.478 482.36C349.038 481.373 349.318 480.2 349.318 478.84Z" fill="#222055"/>
<path d="M210 240.5L296 292.733C270.8 323.377 228.167 322.084 210 317.606V240.5Z" fill="#222055"/>
<path d="M71.5 151.5L57 94L210.5 0.5V66L71.5 151.5Z" fill="#229CD8"/>
</svg>
